<svg id="Capa_1" data-name="Capa 1" xmlns="http://www.w3.org/2000/svg" viewBox="0 0 100 25"><defs><style>.cls-1{fill:none;}.cls-2{fill:#8fc04f;}.cls-3{fill:#fff;}.cls-4{opacity:0.55;}.cls-5{opacity:0.7;}.cls-6{opacity:0.85;}</style></defs><title>id-dispersion-small</title><rect class="cls-1" x="5" width="88.37" height="25"/><path class="cls-2" d="M12.23,15H8.84V5h3.07a3.72,3.72,0,0,1,2.82,1,3.73,3.73,0,0,1,1,2.69v3.06Q15.69,15,12.23,15Zm2.55-3.1V8.5a2.49,2.49,0,0,0-.82-2,2.9,2.9,0,0,0-1.89-.67H9.75v8.38H12Q14.78,14.17,14.78,11.89Z"/><path class="cls-2" d="M19.56,15h-.91V6.81h.91Z"/><path class="cls-2" d="M59.2,15h-.91V6.81h.91Z"/><path class="cls-2" d="M21.88,12.92h.86a1.43,1.43,0,0,0,.73,1.1,2.89,2.89,0,0,0,2.76,0,1.09,1.09,0,0,0,.6-1A1.27,1.27,0,0,0,26.37,12a3.43,3.43,0,0,0-1.13-.59L23.89,11a3.45,3.45,0,0,1-1.21-.71,1.77,1.77,0,0,1-.62-1.38,2.22,2.22,0,0,1,.66-1.53,2.82,2.82,0,0,1,2.15-.71,3.76,3.76,0,0,1,1,.12A2.89,2.89,0,0,1,26.5,7l.2.11-.31.75a2.44,2.44,0,0,0-1.47-.42,2.4,2.4,0,0,0-1.41.38,1.18,1.18,0,0,0-.53,1,1.1,1.1,0,0,0,.54,1,4.64,4.64,0,0,0,1.23.55q.69.2,1.38.46a2.89,2.89,0,0,1,1.16.8A2.1,2.1,0,0,1,27.75,13,2,2,0,0,1,27,14.58a3.08,3.08,0,0,1-2.12.65,3.32,3.32,0,0,1-2.2-.67A2.17,2.17,0,0,1,21.88,12.92Z"/><path class="cls-2" d="M30.48,18.06l-.91.36V6.81h.91l-.08.83a3,3,0,0,1,2.32-1,2.82,2.82,0,0,1,2.21.88,3.29,3.29,0,0,1,.79,2.28v2.27a3,3,0,0,1-.83,2.28,3.12,3.12,0,0,1-2.24.79,2.68,2.68,0,0,1-2.16-.88Zm4.32-5.78V9.78a2.16,2.16,0,0,0-.63-1.73,2.23,2.23,0,0,0-1.5-.54A2.28,2.28,0,0,0,31.16,8a2.17,2.17,0,0,0-.69,1.66v2.58a1.93,1.93,0,0,0,.6,1.57,2.33,2.33,0,0,0,1.55.51,2.29,2.29,0,0,0,1.56-.53A1.93,1.93,0,0,0,34.8,12.28Z"/><path class="cls-2" d="M40.24,14.39a5.08,5.08,0,0,0,2.38-.67l.36.7a5,5,0,0,1-2.63.77q-2.84,0-2.84-2.38V9.46a2.61,2.61,0,0,1,.82-2.06,3.15,3.15,0,0,1,2.18-.73,2.93,2.93,0,0,1,2.11.73,2.66,2.66,0,0,1,.76,2v2.12l-5,.28v1a1.38,1.38,0,0,0,.64,1.27A2.15,2.15,0,0,0,40.24,14.39Zm2.24-3.67V9.3a1.73,1.73,0,0,0-.38-1.15,1.68,1.68,0,0,0-.78-.57,2.82,2.82,0,0,0-.82-.12A2.24,2.24,0,0,0,39,7.94a1.89,1.89,0,0,0-.59,1.53v1.44Z"/><path class="cls-2" d="M50.34,12.92h.86a1.42,1.42,0,0,0,.73,1.1,2.89,2.89,0,0,0,2.76,0,1.09,1.09,0,0,0,.6-1A1.27,1.27,0,0,0,54.84,12a3.43,3.43,0,0,0-1.13-.59L52.35,11a3.45,3.45,0,0,1-1.21-.71,1.77,1.77,0,0,1-.62-1.38,2.22,2.22,0,0,1,.66-1.53,2.82,2.82,0,0,1,2.15-.71,3.76,3.76,0,0,1,1,.12A2.86,2.86,0,0,1,55,7l.2.11-.31.75a2.44,2.44,0,0,0-1.47-.42A2.4,2.4,0,0,0,52,7.79a1.18,1.18,0,0,0-.53,1,1.1,1.1,0,0,0,.54,1,4.63,4.63,0,0,0,1.23.55q.69.2,1.38.46a2.89,2.89,0,0,1,1.16.8A2.1,2.1,0,0,1,56.22,13a2,2,0,0,1-.73,1.55,3.07,3.07,0,0,1-2.12.65,3.32,3.32,0,0,1-2.2-.67A2.17,2.17,0,0,1,50.34,12.92Z"/><path class="cls-2" d="M70,15V9.83a3.29,3.29,0,0,1,.79-2.37A3,3,0,0,1,73,6.63a2.93,2.93,0,0,1,2.25.86,3.3,3.3,0,0,1,.8,2.34V15h-.91V9.83q0-2.37-2.11-2.37T70.9,9.83V15Z"/><path class="cls-2" d="M68.11,9.83V12a3.41,3.41,0,0,1-.75,2.27,2.79,2.79,0,0,1-2.27.9,2.85,2.85,0,0,1-2.29-.91A3.35,3.35,0,0,1,62,12V9.83a3.29,3.29,0,0,1,.79-2.37,3,3,0,0,1,2.24-.82,2.93,2.93,0,0,1,2.25.86A3.3,3.3,0,0,1,68.11,9.83Zm-.91,2.32V9.83q0-2.37-2.11-2.37T62.94,9.83v2.32a2.19,2.19,0,0,0,.58,1.58,2.09,2.09,0,0,0,1.58.6,2,2,0,0,0,1.55-.6A2.26,2.26,0,0,0,67.2,12.15Z"/><rect class="cls-2" x="62.94" y="3.73" width="4.26" height="0.9"/><path class="cls-2" d="M49.23,7.59a2.69,2.69,0,0,0-.86-.13q-2.15,0-2.15,2.37V15H45.3V9.83a3.29,3.29,0,0,1,.79-2.37,3,3,0,0,1,2.24-.82A3.41,3.41,0,0,1,49.87,7Z"/><path class="cls-3" d="M9,19.37H9.2l.05,0,0,0,.58,1.82,0,.1,0,.1,0-.1,0-.1.62-1.83a.06.06,0,0,1,.07-.05h.09a.07.07,0,0,1,.07.05l.61,1.83a1.89,1.89,0,0,1,.06.2l0-.1,0-.1.58-1.82a.08.08,0,0,1,.08-.06h.16l-.77,2.31h-.16s0,0-.05,0l-.63-1.87,0-.07,0-.07v.07l0,.07L10,21.63a.06.06,0,0,1-.06,0H9.8Z"/><path class="cls-3" d="M14.84,19.33a1,1,0,0,1,.36.07.82.82,0,0,1,.29.2.9.9,0,0,1,.19.32,1.24,1.24,0,0,1,.07.43.11.11,0,0,1,0,.07l0,0H14v0a1.56,1.56,0,0,0,.06.46.92.92,0,0,0,.17.33.7.7,0,0,0,.27.2.89.89,0,0,0,.35.07,1,1,0,0,0,.3,0l.21-.09.14-.09.07,0a.05.05,0,0,1,0,0l.06.07a.62.62,0,0,1-.15.13l-.2.1-.24.07-.26,0a1.1,1.1,0,0,1-.43-.08.92.92,0,0,1-.33-.24,1.1,1.1,0,0,1-.22-.39,1.64,1.64,0,0,1-.08-.52,1.43,1.43,0,0,1,.07-.46,1,1,0,0,1,.2-.36.94.94,0,0,1,.33-.24A1.08,1.08,0,0,1,14.84,19.33Zm0,.16a.87.87,0,0,0-.32.06.69.69,0,0,0-.24.16.82.82,0,0,0-.17.25,1.15,1.15,0,0,0-.08.33h1.52A1,1,0,0,0,15.5,20a.71.71,0,0,0-.14-.25.63.63,0,0,0-.22-.16A.73.73,0,0,0,14.85,19.5Z"/><path class="cls-3" d="M17.57,21.67V18.3h.22v1.47a1.2,1.2,0,0,1,.35-.32.88.88,0,0,1,.45-.12.81.81,0,0,1,.66.29,1.38,1.38,0,0,1,.24.88,1.62,1.62,0,0,1-.07.47,1.12,1.12,0,0,1-.19.38.92.92,0,0,1-.32.25,1,1,0,0,1-.43.09.86.86,0,0,1-.42-.09.85.85,0,0,1-.3-.28v.28a.06.06,0,0,1-.06.06Zm1-2.17a.76.76,0,0,0-.42.12,1.18,1.18,0,0,0-.33.33v1.22a.78.78,0,0,0,.29.28.9.9,0,0,0,.73,0,.71.71,0,0,0,.26-.21,1,1,0,0,0,.16-.32,1.55,1.55,0,0,0,.05-.42,1.22,1.22,0,0,0-.19-.76A.65.65,0,0,0,18.54,19.51Z"/><path class="cls-3" d="M25.48,21.67V19.37h.12a.06.06,0,0,1,.07.06l0,.33.14-.17a1,1,0,0,1,.16-.14.78.78,0,0,1,.19-.09.68.68,0,0,1,.21,0,.55.55,0,0,1,.4.15.77.77,0,0,1,.2.41.8.8,0,0,1,.12-.25.72.72,0,0,1,.17-.17.71.71,0,0,1,.21-.1.83.83,0,0,1,.23,0,.79.79,0,0,1,.31.06.61.61,0,0,1,.23.17.75.75,0,0,1,.15.27,1.24,1.24,0,0,1,.05.37v1.47h-.22V20.2a.8.8,0,0,0-.15-.52.51.51,0,0,0-.42-.18.62.62,0,0,0-.23,0,.55.55,0,0,0-.19.13.63.63,0,0,0-.13.22.85.85,0,0,0,0,.3v1.47h-.22V20.2a.85.85,0,0,0-.13-.52.46.46,0,0,0-.39-.18.59.59,0,0,0-.35.11,1.06,1.06,0,0,0-.28.31v1.74Z"/><path class="cls-3" d="M31.84,21.67a.08.08,0,0,1-.09-.06l0-.29-.19.17-.2.13a1,1,0,0,1-.22.08l-.26,0a.76.76,0,0,1-.23,0,.56.56,0,0,1-.2-.11.53.53,0,0,1-.14-.18.64.64,0,0,1-.05-.27.48.48,0,0,1,.08-.27.69.69,0,0,1,.26-.22,1.72,1.72,0,0,1,.46-.15,3.93,3.93,0,0,1,.67-.06v-.24a.77.77,0,0,0-.14-.49.49.49,0,0,0-.41-.17.77.77,0,0,0-.28,0l-.2.1-.13.1a.14.14,0,0,1-.09,0,.08.08,0,0,1-.07,0l0-.07a1.33,1.33,0,0,1,.38-.27,1.06,1.06,0,0,1,.45-.09.82.82,0,0,1,.32.06.59.59,0,0,1,.23.17.75.75,0,0,1,.14.27,1.24,1.24,0,0,1,0,.35v1.5Zm-.93-.12a1,1,0,0,0,.25,0,.92.92,0,0,0,.21-.08l.18-.12.16-.16v-.6a4,4,0,0,0-.57.05,1.61,1.61,0,0,0-.39.11.57.57,0,0,0-.23.17.35.35,0,0,0-.07.22.48.48,0,0,0,0,.2.39.39,0,0,0,.1.14.38.38,0,0,0,.15.08Z"/><path class="cls-3" d="M33.83,21.67V19.37h.12l.06,0a.08.08,0,0,1,0,.06l0,.49a1.1,1.1,0,0,1,.3-.44.68.68,0,0,1,.46-.16l.19,0,.17.06,0,.15a0,0,0,0,1,0,0h0l-.06,0-.09,0h-.13a.6.6,0,0,0-.43.16,1.15,1.15,0,0,0-.27.47v1.5Z"/><path class="cls-3" d="M38.39,19.68l0,0h0l-.06,0-.11-.07L38,19.54a.82.82,0,0,0-.24,0,.84.84,0,0,0-.35.07.71.71,0,0,0-.26.2.93.93,0,0,0-.16.32A1.65,1.65,0,0,0,37,21a.91.91,0,0,0,.16.32.68.68,0,0,0,.25.2.79.79,0,0,0,.33.07.85.85,0,0,0,.28,0l.19-.09.12-.09.07,0a.05.05,0,0,1,0,0l.06.07a.67.67,0,0,1-.13.13l-.18.1-.22.07-.25,0a1,1,0,0,1-.4-.08.87.87,0,0,1-.31-.23,1.09,1.09,0,0,1-.2-.37,1.6,1.6,0,0,1-.07-.5,1.57,1.57,0,0,1,.07-.48,1.08,1.08,0,0,1,.2-.38.91.91,0,0,1,.33-.24,1.08,1.08,0,0,1,.44-.09,1,1,0,0,1,.4.07,1,1,0,0,1,.3.19Z"/><path class="cls-3" d="M41.66,21.67a.08.08,0,0,1-.09-.06l0-.29-.19.17-.2.13a1,1,0,0,1-.22.08l-.26,0a.76.76,0,0,1-.23,0,.56.56,0,0,1-.2-.11.52.52,0,0,1-.14-.18.64.64,0,0,1-.05-.27.48.48,0,0,1,.08-.27.69.69,0,0,1,.26-.22,1.72,1.72,0,0,1,.46-.15,3.93,3.93,0,0,1,.67-.06v-.24a.77.77,0,0,0-.14-.49.49.49,0,0,0-.41-.17.77.77,0,0,0-.28,0l-.2.1-.13.1a.14.14,0,0,1-.09,0,.08.08,0,0,1-.07,0l0-.07a1.33,1.33,0,0,1,.38-.27,1.06,1.06,0,0,1,.45-.09.82.82,0,0,1,.32.06.59.59,0,0,1,.23.17.73.73,0,0,1,.14.27,1.23,1.23,0,0,1,0,.35v1.5Zm-.93-.12a1,1,0,0,0,.25,0,.91.91,0,0,0,.21-.08l.18-.12.16-.16v-.6a3.94,3.94,0,0,0-.57.05,1.62,1.62,0,0,0-.39.11.57.57,0,0,0-.23.17.35.35,0,0,0-.07.22.49.49,0,0,0,0,.2.39.39,0,0,0,.1.14.39.39,0,0,0,.15.08Z"/><path class="cls-3" d="M47.93,21.67V19.61l-.32,0s-.07,0-.07-.06v-.09h.39v-.29A1.08,1.08,0,0,1,48,18.8a.7.7,0,0,1,.14-.25.58.58,0,0,1,.22-.15.8.8,0,0,1,.29-.05h.14l.13,0v.11s0,0,0,0h-.19a.64.64,0,0,0-.21,0,.42.42,0,0,0-.17.11.5.5,0,0,0-.11.19,1,1,0,0,0,0,.29v.28h.75v.16h-.74v2.07Z"/><path class="cls-3" d="M51.42,19.33a1.11,1.11,0,0,1,.44.08.91.91,0,0,1,.33.24,1.06,1.06,0,0,1,.21.37,1.73,1.73,0,0,1,0,1,1.06,1.06,0,0,1-.21.37.89.89,0,0,1-.33.24,1.22,1.22,0,0,1-.89,0,.9.9,0,0,1-.33-.24,1,1,0,0,1-.21-.37,1.73,1.73,0,0,1,0-1,1,1,0,0,1,.21-.37.92.92,0,0,1,.33-.24A1.12,1.12,0,0,1,51.42,19.33Zm0,2.2a.85.85,0,0,0,.36-.07.67.67,0,0,0,.26-.2.89.89,0,0,0,.15-.32,1.73,1.73,0,0,0,0-.84.9.9,0,0,0-.15-.32.68.68,0,0,0-.26-.2.93.93,0,0,0-.72,0,.68.68,0,0,0-.26.2.93.93,0,0,0-.16.32,1.7,1.7,0,0,0,0,.84.92.92,0,0,0,.16.32.67.67,0,0,0,.26.2A.85.85,0,0,0,51.42,21.53Z"/><path class="cls-3" d="M54.88,21.71a.49.49,0,0,1-.36-.13.55.55,0,0,1-.13-.4V19.6H54a0,0,0,0,1,0,0v-.09l.39,0,.05-.82a.07.07,0,0,1,0,0l0,0h.1v.88h.73v.16h-.73v1.56a.48.48,0,0,0,0,.16.3.3,0,0,0,.07.11.27.27,0,0,0,.1.07l.13,0,.14,0,.1-.05.07-.05,0,0,0,0,.06.1a.64.64,0,0,1-.22.16A.7.7,0,0,1,54.88,21.71Z"/><path class="cls-3" d="M58,19.33a1.12,1.12,0,0,1,.44.08.92.92,0,0,1,.33.24A1.07,1.07,0,0,1,59,20a1.73,1.73,0,0,1,0,1,1.07,1.07,0,0,1-.2.37.9.9,0,0,1-.33.24,1.22,1.22,0,0,1-.89,0,.91.91,0,0,1-.33-.24A1,1,0,0,1,57,21a1.72,1.72,0,0,1,0-1,1,1,0,0,1,.21-.37.93.93,0,0,1,.33-.24A1.11,1.11,0,0,1,58,19.33Zm0,2.2a.85.85,0,0,0,.36-.07.67.67,0,0,0,.26-.2.9.9,0,0,0,.15-.32,1.74,1.74,0,0,0,0-.84.91.91,0,0,0-.15-.32.68.68,0,0,0-.26-.2.93.93,0,0,0-.72,0,.68.68,0,0,0-.26.2.92.92,0,0,0-.16.32,1.7,1.7,0,0,0,0,.84.91.91,0,0,0,.16.32.67.67,0,0,0,.26.2A.85.85,0,0,0,58,21.53Z"/><g class="cls-4"><path class="cls-3" d="M69.23,20.43a11.2,11.2,0,0,1-8.18-3.5l.61-.58a10.46,10.46,0,0,0,15,.18l.59.59A11.22,11.22,0,0,1,69.23,20.43Z"/><polygon class="cls-3" points="78.94 15 78.67 14.54 78.94 14.07 79.48 14.07 79.75 14.54 79.48 15 78.94 15"/></g><g class="cls-5"><circle class="cls-3" cx="79.09" cy="11.23" r="0.59"/><circle class="cls-3" cx="82.52" cy="14.69" r="0.59"/><polygon class="cls-3" points="82.17 11.82 81.83 11.23 82.17 10.63 82.86 10.63 83.2 11.23 82.86 11.82 82.17 11.82"/></g><g class="cls-6"><circle class="cls-3" cx="82.4" cy="7.92" r="0.72"/><circle class="cls-3" cx="85.83" cy="11.38" r="0.72"/><polygon class="cls-3" points="85.41 8.64 84.99 7.92 85.41 7.2 86.24 7.2 86.66 7.92 86.24 8.64 85.41 8.64"/></g><circle class="cls-3" cx="85.71" cy="4.61" r="0.85"/><circle class="cls-3" cx="89.13" cy="8.07" r="0.85"/><polygon class="cls-3" points="88.64 5.46 88.15 4.61 88.64 3.76 89.63 3.76 90.12 4.61 89.63 5.46 88.64 5.46"/><rect class="cls-2" x="22.4" y="20.01" width="0.12" height="0.9"/><rect class="cls-2" x="44.71" y="20.01" width="0.12" height="0.9"/></svg>