<svg id="Capa_1" data-name="Capa 1" xmlns="http://www.w3.org/2000/svg" viewBox="0 0 110 43"><defs><style>.cls-1{fill:none;}.cls-2,.cls-6{fill:gray;}.cls-3{opacity:0.55;}.cls-4{opacity:0.7;}.cls-5{opacity:0.85;}.cls-6{font-size:10.03px;font-family:Roboto-Thin, Roboto;}.cls-7{letter-spacing:-0.01em;}.cls-8{letter-spacing:-0.01em;}.cls-9{letter-spacing:-0.01em;}.cls-10{letter-spacing:0em;}</style></defs><title>powered-by</title><rect class="cls-1" x="0.43" y="10.35" width="109.13" height="30.87"/><path class="cls-2" d="M9.37,28.87H5.17V16.48H9a4.6,4.6,0,0,1,3.48,1.25,4.61,4.61,0,0,1,1.2,3.33v3.78Q13.64,28.87,9.37,28.87ZM12.51,25V20.85a3.07,3.07,0,0,0-1-2.52,3.58,3.58,0,0,0-2.34-.83H6.3V27.86H9Q12.51,27.86,12.51,25Z"/><path class="cls-2" d="M18.42,28.87H17.29V18.77h1.13Z"/><path class="cls-2" d="M67.36,28.87H66.23V18.77h1.13Z"/><path class="cls-2" d="M21.28,26.31h1.07a1.76,1.76,0,0,0,.91,1.36,3.57,3.57,0,0,0,3.41,0,1.34,1.34,0,0,0,.75-1.25,1.57,1.57,0,0,0-.57-1.3,4.24,4.24,0,0,0-1.4-.73l-1.67-.55A4.26,4.26,0,0,1,22.26,23a2.19,2.19,0,0,1-.77-1.7,2.74,2.74,0,0,1,.82-1.89A3.48,3.48,0,0,1,25,18.53a4.64,4.64,0,0,1,1.21.15A3.57,3.57,0,0,1,27,19l.24.14-.38.93A3,3,0,0,0,25,19.51a3,3,0,0,0-1.74.46,1.45,1.45,0,0,0-.66,1.25,1.36,1.36,0,0,0,.66,1.2,5.73,5.73,0,0,0,1.52.68q.86.25,1.7.57a3.56,3.56,0,0,1,1.43,1,2.59,2.59,0,0,1,.58,1.77,2.49,2.49,0,0,1-.9,1.91,3.8,3.8,0,0,1-2.62.81,4.1,4.1,0,0,1-2.71-.83A2.68,2.68,0,0,1,21.28,26.31Z"/><path class="cls-2" d="M31.9,32.66l-1.13.44V18.77H31.9l-.1,1a3.74,3.74,0,0,1,2.86-1.19,3.48,3.48,0,0,1,2.73,1.09,4.06,4.06,0,0,1,1,2.82v2.8a3.7,3.7,0,0,1-1,2.81,3.86,3.86,0,0,1-2.77,1A3.31,3.31,0,0,1,31.9,28Zm5.34-7.14V22.44a2.67,2.67,0,0,0-.78-2.14,2.76,2.76,0,0,0-1.85-.67,2.82,2.82,0,0,0-1.86.65,2.67,2.67,0,0,0-.85,2v3.18a2.38,2.38,0,0,0,.75,1.93,2.88,2.88,0,0,0,1.91.62,2.83,2.83,0,0,0,1.92-.66A2.38,2.38,0,0,0,37.24,25.52Z"/><path class="cls-2" d="M44,28.12a6.27,6.27,0,0,0,2.94-.83l.44.87a6.14,6.14,0,0,1-3.24.95q-3.51,0-3.51-2.94V22a3.22,3.22,0,0,1,1-2.54,3.89,3.89,0,0,1,2.69-.91,3.62,3.62,0,0,1,2.61.9A3.28,3.28,0,0,1,47.84,22v2.62l-6.13.34v1.23a1.7,1.7,0,0,0,.79,1.57A2.65,2.65,0,0,0,44,28.12Zm2.76-4.53V21.83a2.14,2.14,0,0,0-.46-1.42,2.08,2.08,0,0,0-1-.71,3.49,3.49,0,0,0-1-.15,2.77,2.77,0,0,0-1.83.6,2.33,2.33,0,0,0-.73,1.89v1.77Z"/><path class="cls-2" d="M56.43,26.31h1.07a1.76,1.76,0,0,0,.91,1.36,3.56,3.56,0,0,0,3.41,0,1.34,1.34,0,0,0,.75-1.25,1.57,1.57,0,0,0-.57-1.3,4.23,4.23,0,0,0-1.4-.73l-1.67-.55A4.26,4.26,0,0,1,57.41,23a2.19,2.19,0,0,1-.77-1.7,2.74,2.74,0,0,1,.82-1.89,3.48,3.48,0,0,1,2.65-.88,4.65,4.65,0,0,1,1.21.15,3.54,3.54,0,0,1,.81.29l.24.14L62,20a3,3,0,0,0-1.81-.52,3,3,0,0,0-1.74.46,1.46,1.46,0,0,0-.66,1.25,1.36,1.36,0,0,0,.67,1.2,5.71,5.71,0,0,0,1.52.68q.86.25,1.7.57a3.57,3.57,0,0,1,1.43,1,2.59,2.59,0,0,1,.58,1.77,2.5,2.5,0,0,1-.9,1.91,3.8,3.8,0,0,1-2.62.81,4.1,4.1,0,0,1-2.71-.83A2.68,2.68,0,0,1,56.43,26.31Z"/><path class="cls-2" d="M80.69,28.87V22.5a4.07,4.07,0,0,1,1-2.93,3.66,3.66,0,0,1,2.77-1,3.62,3.62,0,0,1,2.78,1.06,4.07,4.07,0,0,1,1,2.89v6.37H87.08V22.5q0-2.92-2.6-2.92T81.82,22.5v6.37Z"/><path class="cls-2" d="M78.37,22.5v2.66a4.22,4.22,0,0,1-.93,2.8,3.44,3.44,0,0,1-2.8,1.11,3.52,3.52,0,0,1-2.83-1.12,4.14,4.14,0,0,1-1-2.79V22.5a4.07,4.07,0,0,1,1-2.93,3.67,3.67,0,0,1,2.77-1,3.62,3.62,0,0,1,2.78,1.06A4.08,4.08,0,0,1,78.37,22.5Zm-1.13,2.86V22.5q0-2.92-2.6-2.92T72,22.5v2.86a2.7,2.7,0,0,0,.71,2,2.58,2.58,0,0,0,2,.75,2.47,2.47,0,0,0,1.92-.74A2.8,2.8,0,0,0,77.25,25.36Z"/><rect class="cls-2" x="71.99" y="14.96" width="5.26" height="1.11"/><path class="cls-2" d="M55.06,19.73A3.32,3.32,0,0,0,54,19.57q-2.66,0-2.66,2.92v6.37H50.21V22.5a4.07,4.07,0,0,1,1-2.93,3.66,3.66,0,0,1,2.77-1,4.21,4.21,0,0,1,1.89.4Z"/><path class="cls-2" d="M5.41,34.27h.21l.07,0,0,0,.72,2.25a1.2,1.2,0,0,1,0,.13l0,.12,0-.12,0-.13.76-2.27a.08.08,0,0,1,.08-.06h.11a.08.08,0,0,1,.08.06l.75,2.27a2.32,2.32,0,0,1,.07.25l0-.12a1,1,0,0,1,0-.13l.72-2.25a.09.09,0,0,1,.1-.07h.2l-1,2.85h-.2s-.05,0-.07-.06L7.5,34.75l0-.09,0-.09,0,.09,0,.09-.79,2.31a.07.07,0,0,1-.07.06H6.36Z"/><path class="cls-2" d="M12.59,34.23a1.18,1.18,0,0,1,.44.08,1,1,0,0,1,.36.24,1.12,1.12,0,0,1,.23.39,1.53,1.53,0,0,1,.09.53.14.14,0,0,1,0,.09.07.07,0,0,1-.06,0H11.58v.05a1.93,1.93,0,0,0,.07.56,1.14,1.14,0,0,0,.21.41.86.86,0,0,0,.33.25,1.1,1.1,0,0,0,.44.08,1.29,1.29,0,0,0,.37,0,1.36,1.36,0,0,0,.26-.11l.17-.11a.19.19,0,0,1,.09,0,.07.07,0,0,1,.06,0l.07.09a.77.77,0,0,1-.18.16,1.25,1.25,0,0,1-.25.13l-.3.08a1.61,1.61,0,0,1-.32,0,1.36,1.36,0,0,1-.53-.1,1.14,1.14,0,0,1-.41-.3,1.36,1.36,0,0,1-.27-.48,2,2,0,0,1-.09-.65,1.76,1.76,0,0,1,.09-.57,1.29,1.29,0,0,1,.25-.45,1.16,1.16,0,0,1,.4-.29A1.33,1.33,0,0,1,12.59,34.23Zm0,.2a1.07,1.07,0,0,0-.39.07.85.85,0,0,0-.3.2,1,1,0,0,0-.21.31,1.42,1.42,0,0,0-.1.4h1.87A1.26,1.26,0,0,0,13.4,35a.87.87,0,0,0-.18-.31.78.78,0,0,0-.27-.19A.91.91,0,0,0,12.59,34.43Z"/><path class="cls-2" d="M16,37.12V33h.27v1.81a1.48,1.48,0,0,1,.44-.4,1.08,1.08,0,0,1,.56-.15,1,1,0,0,1,.82.36,1.71,1.71,0,0,1,.29,1.09,2,2,0,0,1-.08.58,1.39,1.39,0,0,1-.24.47,1.14,1.14,0,0,1-.39.31,1.18,1.18,0,0,1-.53.11,1.06,1.06,0,0,1-.51-.12,1.05,1.05,0,0,1-.37-.34l0,.35a.07.07,0,0,1-.08.07Zm1.19-2.68a.94.94,0,0,0-.51.15,1.46,1.46,0,0,0-.41.41v1.5a1,1,0,0,0,.36.34,1.11,1.11,0,0,0,.9,0,.88.88,0,0,0,.32-.26,1.17,1.17,0,0,0,.19-.4,1.92,1.92,0,0,0,.06-.51,1.51,1.51,0,0,0-.23-.93A.81.81,0,0,0,17.15,34.44Z"/><path class="cls-2" d="M25.73,37.12V34.27h.15a.08.08,0,0,1,.09.07l0,.41a1.79,1.79,0,0,1,.18-.21,1.18,1.18,0,0,1,.2-.17,1,1,0,0,1,.23-.11.84.84,0,0,1,.26,0,.68.68,0,0,1,.5.18,1,1,0,0,1,.25.51,1,1,0,0,1,.14-.31.89.89,0,0,1,.21-.21.87.87,0,0,1,.26-.13,1,1,0,0,1,.29,0,1,1,0,0,1,.38.07.75.75,0,0,1,.29.21.93.93,0,0,1,.18.34,1.53,1.53,0,0,1,.06.46v1.82h-.27V35.3a1,1,0,0,0-.18-.64.63.63,0,0,0-.52-.22.76.76,0,0,0-.28.05.68.68,0,0,0-.24.16.78.78,0,0,0-.17.27,1,1,0,0,0-.06.37v1.82h-.27V35.3a1,1,0,0,0-.17-.64.57.57,0,0,0-.48-.22.73.73,0,0,0-.43.14A1.31,1.31,0,0,0,26,35v2.15Z"/><path class="cls-2" d="M33.58,37.12a.1.1,0,0,1-.11-.08l0-.36-.23.21A1.43,1.43,0,0,1,33,37a1.2,1.2,0,0,1-.27.1,1.45,1.45,0,0,1-.32,0,.94.94,0,0,1-.28,0,.7.7,0,0,1-.24-.13.65.65,0,0,1-.17-.23.79.79,0,0,1-.06-.33.59.59,0,0,1,.1-.33.85.85,0,0,1,.32-.27,2.12,2.12,0,0,1,.56-.18,4.87,4.87,0,0,1,.83-.08v-.3a1,1,0,0,0-.17-.61.6.6,0,0,0-.5-.21,1,1,0,0,0-.35.06,1.3,1.3,0,0,0-.24.13l-.16.13a.18.18,0,0,1-.11.06.09.09,0,0,1-.09-.05l0-.08a1.64,1.64,0,0,1,.47-.34,1.3,1.3,0,0,1,.56-.12,1,1,0,0,1,.4.07.72.72,0,0,1,.28.21.92.92,0,0,1,.17.33,1.53,1.53,0,0,1,.06.43v1.85ZM32.44,37a1.24,1.24,0,0,0,.3,0,1.14,1.14,0,0,0,.26-.1,1.25,1.25,0,0,0,.22-.15l.2-.19v-.74a4.88,4.88,0,0,0-.7.06,2,2,0,0,0-.48.14.71.71,0,0,0-.28.2.44.44,0,0,0-.09.27.59.59,0,0,0,0,.25.48.48,0,0,0,.12.17.47.47,0,0,0,.18.1A.73.73,0,0,0,32.44,37Z"/><path class="cls-2" d="M36,37.12V34.27h.14l.07,0a.1.1,0,0,1,0,.07l0,.6a1.35,1.35,0,0,1,.37-.54.84.84,0,0,1,.56-.2l.24,0,.21.08,0,.19a.05.05,0,0,1-.06,0h0l-.08,0-.12,0h-.16a.74.74,0,0,0-.53.2,1.43,1.43,0,0,0-.34.58v1.85Z"/><path class="cls-2" d="M41.67,34.65l0,0h0l-.08,0-.13-.09-.21-.08a1,1,0,0,0-.3,0,1,1,0,0,0-.44.09.88.88,0,0,0-.32.25,1.15,1.15,0,0,0-.2.39,2,2,0,0,0,0,1.05,1.13,1.13,0,0,0,.2.39.84.84,0,0,0,.31.24,1,1,0,0,0,.41.08,1.05,1.05,0,0,0,.34,0,1.14,1.14,0,0,0,.23-.11l.14-.11a.15.15,0,0,1,.08,0,.07.07,0,0,1,.06,0l.07.09a.83.83,0,0,1-.17.16,1.1,1.1,0,0,1-.23.13,1.41,1.41,0,0,1-.27.08,1.58,1.58,0,0,1-.31,0,1.22,1.22,0,0,1-.5-.1,1.07,1.07,0,0,1-.39-.29,1.35,1.35,0,0,1-.25-.46,2,2,0,0,1-.09-.62,1.94,1.94,0,0,1,.09-.59,1.34,1.34,0,0,1,.25-.46,1.12,1.12,0,0,1,.4-.3,1.33,1.33,0,0,1,.55-.11,1.29,1.29,0,0,1,.49.09,1.22,1.22,0,0,1,.38.24Z"/><path class="cls-2" d="M45.71,37.12A.1.1,0,0,1,45.6,37l0-.36-.23.21a1.4,1.4,0,0,1-.24.15,1.18,1.18,0,0,1-.27.1,1.45,1.45,0,0,1-.32,0,.94.94,0,0,1-.28,0A.69.69,0,0,1,44,37a.65.65,0,0,1-.17-.23.79.79,0,0,1-.06-.33.59.59,0,0,1,.1-.33.84.84,0,0,1,.32-.27,2.12,2.12,0,0,1,.56-.18,4.87,4.87,0,0,1,.83-.08v-.3a1,1,0,0,0-.17-.61.61.61,0,0,0-.51-.21,1,1,0,0,0-.35.06,1.31,1.31,0,0,0-.24.13l-.16.13a.18.18,0,0,1-.11.06.09.09,0,0,1-.09-.05l0-.08a1.64,1.64,0,0,1,.47-.34,1.3,1.3,0,0,1,.56-.12,1,1,0,0,1,.4.07.73.73,0,0,1,.28.21.91.91,0,0,1,.17.33,1.52,1.52,0,0,1,.06.43v1.85ZM44.56,37a1.25,1.25,0,0,0,.3,0,1.12,1.12,0,0,0,.26-.1,1.26,1.26,0,0,0,.22-.15l.2-.19v-.74a4.86,4.86,0,0,0-.7.06,2,2,0,0,0-.48.14.71.71,0,0,0-.28.2.44.44,0,0,0-.09.27.6.6,0,0,0,0,.25.49.49,0,0,0,.12.17.48.48,0,0,0,.18.1A.73.73,0,0,0,44.56,37Z"/><path class="cls-2" d="M53.45,37.12V34.57l-.4,0c-.06,0-.08,0-.08-.07v-.11h.48V34a1.34,1.34,0,0,1,.06-.43.86.86,0,0,1,.18-.31.72.72,0,0,1,.28-.18,1,1,0,0,1,.36-.06l.18,0,.16,0v.13s0,0-.05,0h-.24a.79.79,0,0,0-.26,0,.51.51,0,0,0-.2.13.62.62,0,0,0-.13.24,1.2,1.2,0,0,0,0,.36v.35h.92v.2h-.92v2.56Z"/><path class="cls-2" d="M57.76,34.23a1.38,1.38,0,0,1,.55.1,1.13,1.13,0,0,1,.41.3,1.3,1.3,0,0,1,.25.46,2.12,2.12,0,0,1,0,1.21,1.29,1.29,0,0,1-.25.46,1.1,1.1,0,0,1-.41.3,1.51,1.51,0,0,1-1.1,0,1.11,1.11,0,0,1-.41-.3,1.29,1.29,0,0,1-.25-.46,2.15,2.15,0,0,1,0-1.21,1.3,1.3,0,0,1,.25-.46,1.14,1.14,0,0,1,.41-.3A1.38,1.38,0,0,1,57.76,34.23Zm0,2.71a1,1,0,0,0,.44-.09.84.84,0,0,0,.32-.25,1.1,1.1,0,0,0,.19-.39,2.16,2.16,0,0,0,0-1,1.12,1.12,0,0,0-.19-.4.85.85,0,0,0-.32-.25,1.15,1.15,0,0,0-.89,0,.83.83,0,0,0-.32.25,1.15,1.15,0,0,0-.19.4,2.08,2.08,0,0,0,0,1,1.13,1.13,0,0,0,.19.39.82.82,0,0,0,.32.25A1.05,1.05,0,0,0,57.76,36.94Z"/><path class="cls-2" d="M62,37.16a.61.61,0,0,1-.45-.16.67.67,0,0,1-.16-.5V34.56H61l-.05,0a.06.06,0,0,1,0,0v-.11l.49,0,.07-1a.08.08,0,0,1,0,0l0,0h.13v1.09h.9v.2h-.9v1.93a.61.61,0,0,0,0,.2.38.38,0,0,0,.08.14.34.34,0,0,0,.12.08l.15,0a.47.47,0,0,0,.18,0l.13-.07.09-.07.06,0a.06.06,0,0,1,0,0l.07.12a.79.79,0,0,1-.28.19A.86.86,0,0,1,62,37.16Z"/><path class="cls-2" d="M65.87,34.23a1.38,1.38,0,0,1,.55.1,1.15,1.15,0,0,1,.41.3,1.31,1.31,0,0,1,.25.46,2.12,2.12,0,0,1,0,1.21,1.31,1.31,0,0,1-.25.46,1.12,1.12,0,0,1-.41.3,1.51,1.51,0,0,1-1.1,0,1.12,1.12,0,0,1-.41-.3,1.3,1.3,0,0,1-.25-.46,2.12,2.12,0,0,1,0-1.21,1.3,1.3,0,0,1,.25-.46,1.15,1.15,0,0,1,.41-.3A1.38,1.38,0,0,1,65.87,34.23Zm0,2.71a1,1,0,0,0,.44-.09.82.82,0,0,0,.32-.25,1.1,1.1,0,0,0,.19-.39,2.16,2.16,0,0,0,0-1,1.12,1.12,0,0,0-.19-.4.84.84,0,0,0-.32-.25,1.15,1.15,0,0,0-.89,0,.84.84,0,0,0-.32.25,1.15,1.15,0,0,0-.19.4,2.12,2.12,0,0,0,0,1,1.13,1.13,0,0,0,.19.39.83.83,0,0,0,.32.25A1.05,1.05,0,0,0,65.87,36.94Z"/><g class="cls-3"><path class="cls-2" d="M79.75,35.58a13.82,13.82,0,0,1-10.1-4.32l.75-.71a12.92,12.92,0,0,0,18.48.22l.73.73A13.86,13.86,0,0,1,79.75,35.58Z"/><polygon class="cls-2" points="91.74 28.88 91.41 28.3 91.74 27.73 92.41 27.73 92.74 28.3 92.41 28.88 91.74 28.88"/></g><g class="cls-4"><circle class="cls-2" cx="91.94" cy="24.22" r="0.73"/><circle class="cls-2" cx="96.16" cy="28.5" r="0.73"/><polygon class="cls-2" points="95.74 24.95 95.31 24.22 95.74 23.48 96.58 23.48 97.01 24.22 96.58 24.95 95.74 24.95"/></g><g class="cls-5"><circle class="cls-2" cx="96.02" cy="20.13" r="0.89"/><circle class="cls-2" cx="100.25" cy="24.41" r="0.89"/><polygon class="cls-2" points="99.73 21.02 99.22 20.13 99.73 19.24 100.76 19.24 101.28 20.13 100.76 21.02 99.73 21.02"/></g><circle class="cls-2" cx="100.11" cy="16.04" r="1.05"/><circle class="cls-2" cx="104.34" cy="20.32" r="1.05"/><polygon class="cls-2" points="103.73 17.09 103.12 16.04 103.73 14.99 104.94 14.99 105.55 16.04 104.94 17.09 103.73 17.09"/><rect class="cls-2" x="21.92" y="35.06" width="0.15" height="1.11"/><rect class="cls-2" x="49.47" y="35.06" width="0.15" height="1.11"/><text class="cls-6" transform="translate(28.83 10.35)"><tspan class="cls-7">P</tspan><tspan x="5.96" y="0">owe</tspan><tspan class="cls-8" x="24.12" y="0">r</tspan><tspan x="27.38" y="0">ed </tspan><tspan class="cls-9" x="40.32" y="0">b</tspan><tspan class="cls-10" x="45.76" y="0">y:</tspan></text></svg>